<svg width="50" height="50" viewBox="0 0 50 50" fill="none" xmlns="http://www.w3.org/2000/svg">
    <path d="M25 0C20.389 0 16.5495 3.27679 15.9051 7.5H6.91281C6.80089 7.48178 6.68752 7.4728 6.57397 7.47314C6.47585 7.47516 6.37804 7.48413 6.28133 7.5H1.99955C1.7383 7.49649 1.47893 7.54239 1.2365 7.63504C0.994076 7.72769 0.773427 7.86524 0.58738 8.0397C0.401333 8.21416 0.253599 8.42205 0.152763 8.65128C0.051927 8.88051 0 9.12652 0 9.375C0 9.62348 0.051927 9.86949 0.152763 10.0987C0.253599 10.328 0.401333 10.5358 0.58738 10.7103C0.773427 10.8848 0.994076 11.0223 1.2365 11.115C1.47893 11.2076 1.7383 11.2535 1.99955 11.25H4.81043L8.11931 43.7866C8.47559 47.2949 11.6095 50 15.3147 50H34.6828C38.3881 50 41.522 47.2952 41.8781 43.7866L45.1896 11.25H48.0005C48.2617 11.2535 48.5211 11.2076 48.7635 11.115C49.0059 11.0223 49.2266 10.8848 49.4126 10.7103C49.5987 10.5358 49.7464 10.328 49.8472 10.0987C49.9481 9.86949 50 9.62348 50 9.375C50 9.12652 49.9481 8.88051 49.8472 8.65128C49.7464 8.42205 49.5987 8.21416 49.4126 8.0397C49.2266 7.86524 49.0059 7.72769 48.7635 7.63504C48.5211 7.54239 48.2617 7.49649 48.0005 7.5H43.7212C43.5121 7.46773 43.2989 7.46773 43.0898 7.5H34.0949C33.4505 3.27679 29.611 0 25 0ZM25 3.75C27.4698 3.75 29.496 5.3352 30.075 7.5H19.925C20.504 5.3352 22.5302 3.75 25 3.75ZM8.76877 11.25H41.2287L37.9532 43.4253C37.7888 45.0442 36.3924 46.25 34.6828 46.25H15.3147C13.6075 46.25 12.2085 45.042 12.0443 43.4253L8.76877 11.25ZM20.3691 17.4731C19.8467 17.4809 19.3489 17.6856 18.985 18.0422C18.6211 18.3988 18.4209 18.8781 18.4284 19.375V38.125C18.4247 38.3735 18.473 38.6201 18.5704 38.8507C18.6678 39.0813 18.8125 39.2911 18.9959 39.4681C19.1793 39.645 19.3979 39.7855 19.639 39.8814C19.88 39.9773 20.1386 40.0267 20.3999 40.0267C20.6612 40.0267 20.9198 39.9773 21.1609 39.8814C21.4019 39.7855 21.6205 39.645 21.8039 39.4681C21.9873 39.2911 22.132 39.0813 22.2294 38.8507C22.3268 38.6201 22.3751 38.3735 22.3714 38.125V19.375C22.3752 19.124 22.3259 18.8749 22.2266 18.6424C22.1273 18.4099 21.9799 18.1987 21.7932 18.0213C21.6065 17.8439 21.3842 17.704 21.1396 17.6099C20.895 17.5157 20.633 17.4692 20.3691 17.4731ZM29.5693 17.4731C29.0469 17.4809 28.5491 17.6856 28.1852 18.0422C27.8213 18.3988 27.6211 18.8781 27.6286 19.375V38.125C27.6249 38.3735 27.6732 38.6201 27.7706 38.8507C27.868 39.0813 28.0127 39.2911 28.1961 39.4681C28.3795 39.645 28.5981 39.7855 28.8391 39.8814C29.0802 39.9773 29.3388 40.0267 29.6001 40.0267C29.8614 40.0267 30.12 39.9773 30.3611 39.8814C30.6021 39.7855 30.8207 39.645 31.0041 39.4681C31.1875 39.2911 31.3322 39.0813 31.4296 38.8507C31.527 38.6201 31.5753 38.3735 31.5716 38.125V19.375C31.5753 19.124 31.5261 18.8749 31.4268 18.6424C31.3275 18.4099 31.1801 18.1987 30.9934 18.0213C30.8067 17.8439 30.5844 17.704 30.3398 17.6099C30.0952 17.5157 29.8332 17.4692 29.5693 17.4731Z"
          fill="black"/>
</svg>
